<svg width="1024" height="1024" viewBox="0 0 1024 1024" fill="none" xmlns="http://www.w3.org/2000/svg">
<g clip-path="url(#clip0_65_28)">
<g filter="url(#filter0_d_65_28)">
<path d="M804 0H220C98.4977 0 0.000351672 98.4973 0.000305504 220L8.35956e-05 804C3.7427e-05 925.503 98.4975 1024 220 1024H804C925.503 1024 1024 925.503 1024 804V220C1024 98.4974 925.503 0 804 0Z" fill="url(#paint0_linear_65_28)"/>
</g>
<path d="M713.05 792.534C713.05 792.534 737.167 794.767 752.667 792.534C768.167 790.3 795.167 778.3 807.475 766.796C819.784 755.292 824.843 746.829 834.476 727.796C840.573 710.849 839.667 713.3 842.667 688.3C841.167 663.3 835.313 646.8 830.965 638.8C821.474 621.337 818.697 619.332 807.475 607.797C808.719 606.817 616.5 470.5 616.5 470.5M418.167 281.8C420.167 261.8 437.667 235.8 447.167 229.3C465.828 216.532 477.667 208.8 502.667 208.8C534.375 208.8 553.667 221.3 569.167 238.8C584.667 256.3 590.667 276.3 590.667 299.3C587.667 324.8 582.256 338.31 566.481 355.797C550.707 373.284 213.843 606.8 212.343 612.3C193.343 630.8 185.265 655.555 183.843 663.8C179.962 686.3 178.843 707.8 193.343 735.3C207.842 762.8 239.343 786.767 269.843 792.534C300.343 798.3 592 792.534 592 792.534" stroke="white" stroke-width="64" stroke-linecap="round"/>
</g>
<defs>
<filter id="filter0_d_65_28" x="-4" y="0" width="1032" height="1032" filterUnits="userSpaceOnUse" color-interpolation-filters="sRGB">
<feFlood flood-opacity="0" result="BackgroundImageFix"/>
<feColorMatrix in="SourceAlpha" type="matrix" values="0 0 0 0 0 0 0 0 0 0 0 0 0 0 0 0 0 0 127 0" result="hardAlpha"/>
<feOffset dy="4"/>
<feGaussianBlur stdDeviation="2"/>
<feComposite in2="hardAlpha" operator="out"/>
<feColorMatrix type="matrix" values="0 0 0 0 0 0 0 0 0 0 0 0 0 0 0 0 0 0 0.25 0"/>
<feBlend mode="normal" in2="BackgroundImageFix" result="effect1_dropShadow_65_28"/>
<feBlend mode="normal" in="SourceGraphic" in2="effect1_dropShadow_65_28" result="shape"/>
</filter>
<linearGradient id="paint0_linear_65_28" x1="0" y1="1024" x2="1024" y2="0" gradientUnits="userSpaceOnUse">
<stop stop-color="#FF4242"/>
<stop offset="1" stop-color="#FF4D6D"/>
</linearGradient>
<clipPath id="clip0_65_28">
<rect width="1024" height="1024" fill="white"/>
</clipPath>
</defs>
</svg>
