<svg width="40" height="40" viewBox="0 0 40 40" fill="none" xmlns="http://www.w3.org/2000/svg">
<path fill-rule="evenodd" clip-rule="evenodd" d="M33.6875 13.0625C34.7921 13.0625 35.5 13.9579 35.5 15.0625L37.5 36.0625C37.5 37.1671 36.6046 38.0625 35.5 38.0625H4.5C3.39543 38.0625 2.5 37.1671 2.5 36.0625L4.5 15.0625C4.5 13.9579 5.52043 13.0625 6.625 13.0625H10.25V15.3125C10.25 16.5625 11.25 17.5625 12.5 17.5625C13.75 17.5625 14.75 16.5625 14.75 15.3125V13.0625H25.25V15.3125C25.25 16.5 26.1875 17.5625 27.5 17.5625C28.8125 17.5625 29.75 16.5 29.75 15.3125V13.0625H33.6875Z" fill="white"/>
<path fill-rule="evenodd" clip-rule="evenodd" d="M11.25 11.0625C11.25 5.625 15.125 1.9375 20 1.9375C24.875 1.9375 28.75 5.625 28.75 11.0625V15.3125C28.75 15.9375 28.25 16.5625 27.5 16.5625C26.875 16.5625 26.25 16.0625 26.25 15.3125V11.0625C26.25 7.125 23.5625 4.4375 20 4.4375C16.4375 4.4375 13.75 7.1875 13.75 11.0625V15.3125C13.75 16 13.1875 16.5625 12.5 16.5625C11.8125 16.5625 11.25 16 11.25 15.3125V11.0625Z" fill="white"/>
</svg>
